# xmcd CD database file
#
# Track frame offsets:
#	182
#	17985
#	35715
#	54605
#	73397
#
# Disc length: 1186 seconds
#
# Revision: 2
# Processed by: cddbd v1.4b41PL1 Copyright (c) Steve Scherf et al.
# Submitted via: Feurio! 1.52 - http://www.feurio.com
#
DISCID=4a04a005
DTITLE=Bastiaan Ragas - You Complete Me
DYEAR=1900
DGENRE=
TTITLE0=You Complete Me (radio ballade)
TTITLE1=You Complete Me (radio uptempo)
TTITLE2=You Complete Me (album version)
TTITLE3=You Complete Me album uptempo)
TTITLE4=Never Let You Go
EXTD=
EXTT0=
EXTT1=
EXTT2=
EXTT3=
EXTT4=
PLAYORDER=
